# xmcd CD database file
#
# Track frame offsets:
#	150
#	22783
#	42513
#	64120
#	83723
#	105755
#	124868
#	144810
#	166790
#	187203
#	207920
#	224380
#	241990
#	271388
#	287750
#	309078
#
# Disc length: 4397 seconds
#
# Revision: 6
# Processed by: cddbd v1.5.1PL2 Copyright (c) Steve Scherf et al.
# Submitted via: CDex 1.51
#
DISCID=d7112b10
DTITLE=Rod Stewart - The Best Of Rod Stewart
DYEAR=1989
DGENRE=Blues
TTITLE0=Maggie May
TTITLE1=You Wear It Well
TTITLE2=Baby Jane
TTITLE3=Da Ya Think I'm Sexy
TTITLE4=I Was Only Joking
TTITLE5=This Old Heart Of Mine
TTITLE6=Sailing
TTITLE7=I Don't Want To Talk About It
TTITLE8=You're In My Heart
TTITLE9=Young Turks
TTITLE10=What Am I Gonna Do
TTITLE11=The First Cut Is The Deepest
TTITLE12=The Killing Of George
TTITLE13=Tonight Is The Night
TTITLE14=Every Beat Of My Heart
TTITLE15=Downtown Train
EXTD=YEAR: 1989
EXTT0=
EXTT1=
EXTT2=
EXTT3=
EXTT4=
EXTT5=
EXTT6=
EXTT7=
EXTT8=
EXTT9=
EXTT10=
EXTT11=
EXTT12=
EXTT13=
EXTT14=
EXTT15=
PLAYORDER=
